<mxfile host="app.diagrams.net" agent="Mozilla/5.0 (Windows NT 10.0; Win64; x64) AppleWebKit/537.36 (KHTML, like Gecko) Chrome/138.0.0.0 Safari/537.36" version="28.1.1">
  <diagram name="Página-1" id="pvXA3sZXB-uVoFnA53AX">
    <mxGraphModel dx="906" dy="458" grid="1" gridSize="10" guides="1" tooltips="1" connect="1" arrows="1" fold="1" page="1" pageScale="1" pageWidth="2339" pageHeight="3300" math="0" shadow="0">
      <root>
        <mxCell id="0" />
        <mxCell id="1" parent="0" />
        <mxCell id="HDA9DG_kKja7Teee1veB-7" style="edgeStyle=orthogonalEdgeStyle;rounded=0;orthogonalLoop=1;jettySize=auto;html=1;entryX=0.5;entryY=0;entryDx=0;entryDy=0;" edge="1" parent="1" source="HDA9DG_kKja7Teee1veB-1" target="HDA9DG_kKja7Teee1veB-4">
          <mxGeometry relative="1" as="geometry" />
        </mxCell>
        <mxCell id="HDA9DG_kKja7Teee1veB-1" value="Login" style="rounded=1;whiteSpace=wrap;html=1;" vertex="1" parent="1">
          <mxGeometry x="320" y="30" width="120" height="60" as="geometry" />
        </mxCell>
        <mxCell id="HDA9DG_kKja7Teee1veB-16" style="edgeStyle=orthogonalEdgeStyle;rounded=0;orthogonalLoop=1;jettySize=auto;html=1;entryX=0.5;entryY=0;entryDx=0;entryDy=0;" edge="1" parent="1" source="HDA9DG_kKja7Teee1veB-2" target="HDA9DG_kKja7Teee1veB-13">
          <mxGeometry relative="1" as="geometry" />
        </mxCell>
        <mxCell id="HDA9DG_kKja7Teee1veB-17" style="edgeStyle=orthogonalEdgeStyle;rounded=0;orthogonalLoop=1;jettySize=auto;html=1;entryX=0.5;entryY=0;entryDx=0;entryDy=0;" edge="1" parent="1" source="HDA9DG_kKja7Teee1veB-2">
          <mxGeometry relative="1" as="geometry">
            <mxPoint x="160" y="300" as="targetPoint" />
            <Array as="points">
              <mxPoint x="161" y="240" />
            </Array>
          </mxGeometry>
        </mxCell>
        <mxCell id="HDA9DG_kKja7Teee1veB-18" style="edgeStyle=orthogonalEdgeStyle;rounded=0;orthogonalLoop=1;jettySize=auto;html=1;entryX=0.5;entryY=0;entryDx=0;entryDy=0;" edge="1" parent="1" source="HDA9DG_kKja7Teee1veB-2" target="HDA9DG_kKja7Teee1veB-15">
          <mxGeometry relative="1" as="geometry">
            <Array as="points">
              <mxPoint x="380" y="240" />
              <mxPoint x="637" y="240" />
              <mxPoint x="637" y="301" />
            </Array>
          </mxGeometry>
        </mxCell>
        <mxCell id="HDA9DG_kKja7Teee1veB-53" style="edgeStyle=orthogonalEdgeStyle;rounded=0;orthogonalLoop=1;jettySize=auto;html=1;entryX=0.5;entryY=0;entryDx=0;entryDy=0;" edge="1" parent="1" source="HDA9DG_kKja7Teee1veB-2" target="HDA9DG_kKja7Teee1veB-52">
          <mxGeometry relative="1" as="geometry" />
        </mxCell>
        <mxCell id="HDA9DG_kKja7Teee1veB-2" value="&lt;b&gt;Menú Principal&lt;br&gt;&lt;/b&gt;&lt;div style=&quot;text-align: left;&quot;&gt;&lt;span style=&quot;background-color: transparent; color: light-dark(rgb(0, 0, 0), rgb(255, 255, 255));&quot;&gt;-Gastos&lt;/span&gt;&lt;/div&gt;&lt;div style=&quot;text-align: left;&quot;&gt;&lt;span style=&quot;background-color: transparent; color: light-dark(rgb(0, 0, 0), rgb(255, 255, 255));&quot;&gt;-Categorías&lt;/span&gt;&lt;/div&gt;&lt;div style=&quot;text-align: left;&quot;&gt;&lt;span style=&quot;background-color: transparent; color: light-dark(rgb(0, 0, 0), rgb(255, 255, 255));&quot;&gt;-Presupuestos&lt;br&gt;-Ahorros&lt;br&gt;-Salir&lt;br&gt;&lt;br&gt;&lt;/span&gt;&lt;/div&gt;" style="rounded=1;whiteSpace=wrap;html=1;" vertex="1" parent="1">
          <mxGeometry x="302.5" y="140" width="155" height="115" as="geometry" />
        </mxCell>
        <mxCell id="HDA9DG_kKja7Teee1veB-3" value="" style="endArrow=classic;html=1;rounded=0;exitX=0.5;exitY=1;exitDx=0;exitDy=0;entryX=0.5;entryY=0;entryDx=0;entryDy=0;" edge="1" parent="1" source="HDA9DG_kKja7Teee1veB-1" target="HDA9DG_kKja7Teee1veB-2">
          <mxGeometry width="50" height="50" relative="1" as="geometry">
            <mxPoint x="390" y="300" as="sourcePoint" />
            <mxPoint x="440" y="250" as="targetPoint" />
          </mxGeometry>
        </mxCell>
        <mxCell id="HDA9DG_kKja7Teee1veB-12" style="edgeStyle=orthogonalEdgeStyle;rounded=0;orthogonalLoop=1;jettySize=auto;html=1;entryX=0;entryY=0.5;entryDx=0;entryDy=0;exitX=0.5;exitY=1;exitDx=0;exitDy=0;" edge="1" parent="1" source="HDA9DG_kKja7Teee1veB-4" target="HDA9DG_kKja7Teee1veB-2">
          <mxGeometry relative="1" as="geometry" />
        </mxCell>
        <mxCell id="HDA9DG_kKja7Teee1veB-4" value="volver a intener&lt;br&gt;3 veces" style="rounded=1;whiteSpace=wrap;html=1;" vertex="1" parent="1">
          <mxGeometry x="90" y="105" width="120" height="60" as="geometry" />
        </mxCell>
        <mxCell id="HDA9DG_kKja7Teee1veB-9" value="NO" style="text;html=1;align=center;verticalAlign=middle;whiteSpace=wrap;rounded=0;" vertex="1" parent="1">
          <mxGeometry x="220" y="30" width="60" height="30" as="geometry" />
        </mxCell>
        <mxCell id="HDA9DG_kKja7Teee1veB-10" value="SI" style="text;html=1;align=center;verticalAlign=middle;whiteSpace=wrap;rounded=0;" vertex="1" parent="1">
          <mxGeometry x="360" y="100" width="60" height="30" as="geometry" />
        </mxCell>
        <mxCell id="HDA9DG_kKja7Teee1veB-36" style="edgeStyle=orthogonalEdgeStyle;rounded=0;orthogonalLoop=1;jettySize=auto;html=1;entryX=0.5;entryY=0;entryDx=0;entryDy=0;exitX=0.5;exitY=1;exitDx=0;exitDy=0;" edge="1" parent="1" source="HDA9DG_kKja7Teee1veB-13" target="HDA9DG_kKja7Teee1veB-21">
          <mxGeometry relative="1" as="geometry" />
        </mxCell>
        <mxCell id="HDA9DG_kKja7Teee1veB-13" value="Sub-Menú Gastos&lt;br&gt;&lt;div style=&quot;&quot;&gt;&lt;span style=&quot;background-color: transparent; color: light-dark(rgb(0, 0, 0), rgb(255, 255, 255));&quot;&gt;-Alta&lt;/span&gt;&lt;/div&gt;&lt;span style=&quot;&quot;&gt;-Baja&lt;/span&gt;&lt;br style=&quot;&quot;&gt;&lt;div style=&quot;&quot;&gt;&lt;span style=&quot;background-color: transparent; color: light-dark(rgb(0, 0, 0), rgb(255, 255, 255));&quot;&gt;-Modificación&lt;br&gt;-Búsqueda&amp;nbsp;&lt;/span&gt;&lt;/div&gt;" style="rounded=1;whiteSpace=wrap;html=1;align=left;" vertex="1" parent="1">
          <mxGeometry x="320" y="300" width="130" height="80" as="geometry" />
        </mxCell>
        <mxCell id="HDA9DG_kKja7Teee1veB-35" style="edgeStyle=orthogonalEdgeStyle;rounded=0;orthogonalLoop=1;jettySize=auto;html=1;entryX=0.5;entryY=0;entryDx=0;entryDy=0;exitX=0.5;exitY=1;exitDx=0;exitDy=0;" edge="1" parent="1" source="HDA9DG_kKja7Teee1veB-15" target="HDA9DG_kKja7Teee1veB-21">
          <mxGeometry relative="1" as="geometry" />
        </mxCell>
        <mxCell id="HDA9DG_kKja7Teee1veB-15" value="Sub-Menú Presupuestos&lt;br&gt;&lt;div style=&quot;&quot;&gt;&lt;span style=&quot;background-color: transparent; color: light-dark(rgb(0, 0, 0), rgb(255, 255, 255));&quot;&gt;-Alta&lt;/span&gt;&lt;/div&gt;&lt;span style=&quot;&quot;&gt;-Baja&lt;/span&gt;&lt;br style=&quot;&quot;&gt;&lt;span style=&quot;&quot;&gt;-Modificación&lt;/span&gt;" style="rounded=1;whiteSpace=wrap;html=1;align=left;" vertex="1" parent="1">
          <mxGeometry x="553" y="301" width="167" height="69" as="geometry" />
        </mxCell>
        <mxCell id="HDA9DG_kKja7Teee1veB-37" style="edgeStyle=orthogonalEdgeStyle;rounded=0;orthogonalLoop=1;jettySize=auto;html=1;entryX=0.5;entryY=0;entryDx=0;entryDy=0;" edge="1" parent="1" source="HDA9DG_kKja7Teee1veB-19" target="HDA9DG_kKja7Teee1veB-21">
          <mxGeometry relative="1" as="geometry" />
        </mxCell>
        <mxCell id="HDA9DG_kKja7Teee1veB-19" value="&lt;div style=&quot;&quot;&gt;&lt;span style=&quot;background-color: transparent; color: light-dark(rgb(0, 0, 0), rgb(255, 255, 255));&quot;&gt;&lt;b&gt;Sub-Menú Categorías&lt;/b&gt;&lt;/span&gt;&lt;/div&gt;&lt;div style=&quot;&quot;&gt;&lt;span style=&quot;background-color: transparent; color: light-dark(rgb(0, 0, 0), rgb(255, 255, 255));&quot;&gt;-Alta&lt;/span&gt;&lt;/div&gt;-Baja&lt;br&gt;-Modificación" style="rounded=1;whiteSpace=wrap;html=1;align=left;" vertex="1" parent="1">
          <mxGeometry x="90" y="301" width="170" height="69" as="geometry" />
        </mxCell>
        <mxCell id="HDA9DG_kKja7Teee1veB-38" style="edgeStyle=orthogonalEdgeStyle;rounded=0;orthogonalLoop=1;jettySize=auto;html=1;" edge="1" parent="1" source="HDA9DG_kKja7Teee1veB-21" target="HDA9DG_kKja7Teee1veB-23">
          <mxGeometry relative="1" as="geometry" />
        </mxCell>
        <mxCell id="HDA9DG_kKja7Teee1veB-42" style="edgeStyle=orthogonalEdgeStyle;rounded=0;orthogonalLoop=1;jettySize=auto;html=1;entryX=0;entryY=0.5;entryDx=0;entryDy=0;" edge="1" parent="1" source="HDA9DG_kKja7Teee1veB-21" target="HDA9DG_kKja7Teee1veB-41">
          <mxGeometry relative="1" as="geometry" />
        </mxCell>
        <mxCell id="HDA9DG_kKja7Teee1veB-21" value="ALTA&lt;br&gt;ingresa los datos de izq a derecha segun tabla" style="rounded=1;whiteSpace=wrap;html=1;" vertex="1" parent="1">
          <mxGeometry x="50" y="430" width="120" height="70" as="geometry" />
        </mxCell>
        <mxCell id="HDA9DG_kKja7Teee1veB-40" style="edgeStyle=orthogonalEdgeStyle;rounded=0;orthogonalLoop=1;jettySize=auto;html=1;" edge="1" parent="1" source="HDA9DG_kKja7Teee1veB-23" target="HDA9DG_kKja7Teee1veB-25">
          <mxGeometry relative="1" as="geometry" />
        </mxCell>
        <mxCell id="HDA9DG_kKja7Teee1veB-43" style="edgeStyle=orthogonalEdgeStyle;rounded=0;orthogonalLoop=1;jettySize=auto;html=1;entryX=0;entryY=0.5;entryDx=0;entryDy=0;" edge="1" parent="1" source="HDA9DG_kKja7Teee1veB-23" target="HDA9DG_kKja7Teee1veB-41">
          <mxGeometry relative="1" as="geometry" />
        </mxCell>
        <mxCell id="HDA9DG_kKja7Teee1veB-23" value="Baja&amp;nbsp;&lt;br&gt;elimina fila entera" style="rounded=1;whiteSpace=wrap;html=1;" vertex="1" parent="1">
          <mxGeometry x="50" y="520" width="120" height="60" as="geometry" />
        </mxCell>
        <mxCell id="HDA9DG_kKja7Teee1veB-44" style="edgeStyle=orthogonalEdgeStyle;rounded=0;orthogonalLoop=1;jettySize=auto;html=1;entryX=0;entryY=0.5;entryDx=0;entryDy=0;" edge="1" parent="1" source="HDA9DG_kKja7Teee1veB-25" target="HDA9DG_kKja7Teee1veB-41">
          <mxGeometry relative="1" as="geometry" />
        </mxCell>
        <mxCell id="HDA9DG_kKja7Teee1veB-25" value="Modificación&lt;br&gt;-sub menu donde elegis que campo modificar&lt;br&gt;-Cambiar todo" style="rounded=1;whiteSpace=wrap;html=1;" vertex="1" parent="1">
          <mxGeometry x="45" y="600" width="130" height="100" as="geometry" />
        </mxCell>
        <mxCell id="HDA9DG_kKja7Teee1veB-46" style="edgeStyle=orthogonalEdgeStyle;rounded=0;orthogonalLoop=1;jettySize=auto;html=1;entryX=1;entryY=0.5;entryDx=0;entryDy=0;" edge="1" parent="1" source="HDA9DG_kKja7Teee1veB-41" target="HDA9DG_kKja7Teee1veB-19">
          <mxGeometry relative="1" as="geometry">
            <mxPoint x="300" y="410" as="targetPoint" />
          </mxGeometry>
        </mxCell>
        <mxCell id="HDA9DG_kKja7Teee1veB-48" style="edgeStyle=orthogonalEdgeStyle;rounded=0;orthogonalLoop=1;jettySize=auto;html=1;entryX=0;entryY=0.5;entryDx=0;entryDy=0;" edge="1" parent="1" source="HDA9DG_kKja7Teee1veB-41" target="HDA9DG_kKja7Teee1veB-13">
          <mxGeometry relative="1" as="geometry" />
        </mxCell>
        <mxCell id="HDA9DG_kKja7Teee1veB-49" style="edgeStyle=orthogonalEdgeStyle;rounded=0;orthogonalLoop=1;jettySize=auto;html=1;entryX=0.75;entryY=1;entryDx=0;entryDy=0;" edge="1" parent="1" source="HDA9DG_kKja7Teee1veB-41" target="HDA9DG_kKja7Teee1veB-15">
          <mxGeometry relative="1" as="geometry" />
        </mxCell>
        <mxCell id="HDA9DG_kKja7Teee1veB-41" value="Volver atrás&amp;nbsp;&lt;br&gt;(Sub-menú)" style="rounded=1;whiteSpace=wrap;html=1;" vertex="1" parent="1">
          <mxGeometry x="240" y="500" width="120" height="60" as="geometry" />
        </mxCell>
        <mxCell id="HDA9DG_kKja7Teee1veB-50" value="Búsqueda&lt;br&gt;-Por Nombre&lt;br&gt;-Por Fecha&lt;br&gt;-Por Categoría&lt;br&gt;-Por fecha y Nombre/Categoría" style="rounded=1;whiteSpace=wrap;html=1;" vertex="1" parent="1">
          <mxGeometry x="310" y="630" width="180" height="120" as="geometry" />
        </mxCell>
        <mxCell id="HDA9DG_kKja7Teee1veB-51" style="edgeStyle=orthogonalEdgeStyle;rounded=0;orthogonalLoop=1;jettySize=auto;html=1;entryX=0.462;entryY=-0.022;entryDx=0;entryDy=0;entryPerimeter=0;fillColor=#1ba1e2;strokeColor=#006EAF;" edge="1" parent="1" source="HDA9DG_kKja7Teee1veB-13" target="HDA9DG_kKja7Teee1veB-50">
          <mxGeometry relative="1" as="geometry" />
        </mxCell>
        <mxCell id="HDA9DG_kKja7Teee1veB-52" value="Ahorro&lt;br&gt;-Por mes&lt;br&gt;-Por objetivo" style="rounded=1;whiteSpace=wrap;html=1;" vertex="1" parent="1">
          <mxGeometry x="768" y="305.5" width="120" height="60" as="geometry" />
        </mxCell>
        <mxCell id="HDA9DG_kKja7Teee1veB-54" value="Salir" style="rounded=1;whiteSpace=wrap;html=1;" vertex="1" parent="1">
          <mxGeometry x="30" y="800" width="840" height="50" as="geometry" />
        </mxCell>
      </root>
    </mxGraphModel>
  </diagram>
</mxfile>
